<?xml version="1.0" encoding="UTF-8"?>
<svg width="512px" height="492px" viewBox="0 0 512 492" version="1.1" xmlns="http://www.w3.org/2000/svg" xmlns:xlink="http://www.w3.org/1999/xlink">
    <title>star-half</title>
    <g id="Page-1" stroke="none" stroke-width="1" fill="none" fill-rule="evenodd">
        <g id="Artboard" transform="translate(-4034.000000, -11334.000000)" fill-rule="nonzero">
            <g id="star-half" transform="translate(4034.000065, 11334.492188)">
                <path d="M511.996029,-2.55795385e-13 C511.997032,-2.55795385e-13 511.998035,5.4932374e-08 511.999039,1.64795333e-07 L511.999,410.584 L511.996029,410.582031 L384.527279,486.765624 C380.218685,489.34375 375.417904,490.648437 370.57806,490.648437 C364.964779,490.648437 359.398373,488.898437 354.64056,485.460937 C345.788997,479.0625 341.648373,468.035156 344.058529,457.367187 L344.058529,457.367187 L376.996029,312.277343 L265.29681,214.316406 C257.081966,207.148437 253.968685,195.777343 257.339779,185.410156 C260.710873,175.042968 269.882747,167.703124 280.742123,166.699218 L280.742123,166.699218 L428.538997,153.28125 L486.972591,16.535156 C491.281185,6.488281 501.093685,-2.55795385e-13 511.996029,-2.55795385e-13 Z" id="Combined-Shape" fill="#D7D7D7" transform="translate(383.999519, 245.324218) scale(-1, 1) translate(-383.999519, -245.324218) "></path>
                <path d="M255.56625,1.64794272e-07 L255.999039,1.64794272e-07 L255.999039,1.64794272e-07 L255.999039,410.584 L255.996029,410.582031 L128.527279,486.765624 C124.218685,489.34375 119.417904,490.648437 114.57806,490.648437 C108.964779,490.648437 103.398373,488.898437 98.6405602,485.460937 C89.9086129,479.148965 85.7611422,468.332347 87.9644044,457.799857 L88.0585292,457.367187 L120.996029,312.277343 L9.29681017,214.316406 C1.08196617,207.148437 -2.03131483,195.777343 1.33977917,185.410156 C4.66651667,175.179378 13.6423864,167.896802 24.3143494,166.742129 L24.7421232,166.699218 L172.538997,153.28125 L230.972591,16.535156 C235.224493,6.62047672 244.836414,0.171360337 255.56625,1.64794272e-07 Z" id="Path" fill="#38787B"></path>
            </g>
        </g>
    </g>
</svg>