<?xml version="1.0" encoding="UTF-8"?>
<svg width="512px" height="492px" viewBox="0 0 512 492" version="1.1" xmlns="http://www.w3.org/2000/svg" xmlns:xlink="http://www.w3.org/1999/xlink">
    <title>star-full</title>
    <g id="Page-1" stroke="none" stroke-width="1" fill="none" fill-rule="evenodd">
        <g id="Artboard" transform="translate(-4311.000000, -10679.000000)" fill="#38787B" fill-rule="nonzero">
            <g id="star-full" transform="translate(4311.000000, 10679.000000)">
                <path d="M510.652344,185.902344 C507.300781,175.535156 498.105469,168.171875 487.226562,167.191406 L339.453125,153.773438 L281.019531,17.003906 C276.710938,6.980469 266.898438,0.492188 255.996094,0.492188 C245.09375,0.492188 235.28125,6.980469 230.972656,17.027344 L172.539062,153.773438 L24.742188,167.191406 C13.882812,168.195312 4.710938,175.535156 1.339844,185.902344 C-2.03125,196.269531 1.082031,207.640625 9.296875,214.808594 L120.996094,312.769531 L88.058594,457.859375 C85.648438,468.527344 89.789062,479.554688 98.640625,485.953125 C103.398438,489.390625 108.964844,491.140625 114.578125,491.140625 C119.417969,491.140625 124.21875,489.835938 128.527344,487.257812 L255.996094,411.074219 L383.417969,487.257812 C392.742188,492.867188 404.496094,492.355469 413.328125,485.953125 C422.183594,479.535156 426.320312,468.503906 423.910156,457.859375 L390.972656,312.769531 L502.671875,214.828125 C510.886719,207.640625 514.023438,196.289062 510.652344,185.902344 Z" id="Path"></path>
            </g>
        </g>
    </g>
</svg>